<svg width="1440" height="1136" viewBox="0 0 1440 1136" fill="none" xmlns="http://www.w3.org/2000/svg">
<path d="M1858 1135.5C1858 986.384 1828.56 838.728 1771.38 700.963C1714.19 563.198 1630.36 438.021 1524.69 332.58C1419.01 227.139 1293.56 143.499 1155.49 86.4348C1017.43 29.3706 869.444 -6.51807e-06 720 0C570.556 6.51807e-06 422.575 29.3706 284.506 86.4348C146.438 143.499 20.9855 227.139 -84.6876 332.58C-190.361 438.021 -274.185 563.198 -331.375 700.963C-388.565 838.728 -418 986.384 -418 1135.5L720 1135.5H1858Z" fill="url(#paint0_linear_90_496)"/>
<defs>
<linearGradient id="paint0_linear_90_496" x1="720" y1="0" x2="720" y2="1220" gradientUnits="userSpaceOnUse">
<stop stop-color="#5DD362" stop-opacity="0.29"/>
<stop offset="1" stop-color="#A0FFA5" stop-opacity="0.3"/>
</linearGradient>
</defs>
</svg>
