<svg width="18" height="19" viewBox="0 0 18 19" fill="none" xmlns="http://www.w3.org/2000/svg">
<path d="M5.66535 13.7345C5.90969 13.9075 6.20192 13.9999 6.50129 13.9989V13.9949C6.78358 13.9955 7.0598 13.9132 7.2957 13.7582C7.5316 13.6031 7.7168 13.3822 7.8283 13.1229L8.4413 11.2589C8.5829 10.8366 8.8207 10.4531 9.1361 10.1386C9.4514 9.8241 9.8356 9.5873 10.2583 9.4469L12.0363 8.8689C12.3227 8.7683 12.5701 8.5799 12.7432 8.3305C12.9164 8.0812 13.0065 7.7836 13.0007 7.48009C12.9949 7.17659 12.8936 6.88262 12.7111 6.64003C12.5286 6.39744 12.2743 6.21858 11.9843 6.12889L10.2293 5.55889C9.8048 5.41763 9.419 5.1793 9.1027 4.86283C8.7864 4.54637 8.5483 4.1605 8.4073 3.73589L7.8293 1.95889C7.7285 1.67586 7.542 1.43127 7.2958 1.25908C7.0496 1.0869 6.7559 0.99567 6.45547 0.99809C6.15504 1.00051 5.86282 1.09645 5.61942 1.27258C5.37602 1.44871 5.19353 1.69628 5.09729 1.98089L4.51429 3.77289C4.37371 4.18515 4.14135 4.56012 3.83474 4.8695C3.52813 5.17888 3.15528 5.4146 2.74429 5.55889L0.967291 6.12989C0.755921 6.20382 0.564631 6.32589 0.408551 6.48647C0.252471 6.64704 0.135871 6.84172 0.067981 7.05511C8.10474e-05 7.2685 -0.0172591 7.49475 0.0173309 7.716C0.0519309 7.93724 0.137501 8.1474 0.267291 8.3299C0.444181 8.5789 0.695081 8.7657 0.984291 8.8639L2.73829 9.4329C3.16392 9.5753 3.55049 9.815 3.86729 10.1329C3.95236 10.2173 4.03186 10.3072 4.10529 10.4019C4.30447 10.6597 4.45833 10.9495 4.56029 11.2589L5.13829 13.0339C5.23676 13.3166 5.42102 13.5615 5.66535 13.7345ZM5.29129 9.4849C5.17979 9.3392 5.05851 9.2012 4.92829 9.0719H4.93129C4.44841 8.5886 3.85948 8.2247 3.21129 8.0089L1.61129 7.50089L3.22229 6.97689C3.85983 6.75615 4.43806 6.39176 4.91229 5.91189C5.38447 5.42897 5.74047 4.84487 5.95329 4.20389L6.46829 2.62189L6.98429 4.20889C7.1997 4.85585 7.5633 5.44351 8.0462 5.92497C8.529 6.40643 9.1177 6.76837 9.7653 6.98189L11.3843 7.50389L9.7953 8.0189C9.1489 8.2338 8.5616 8.5965 8.08 9.0782C7.5984 9.56 7.2359 10.1474 7.0213 10.7939L6.50629 12.3759L5.99129 10.7909C5.83406 10.3189 5.59732 9.8772 5.29129 9.4849ZM13.332 18.7819C13.1415 18.6461 12.9981 18.4541 12.922 18.2329L12.594 17.2259C12.5302 17.0344 12.4231 16.8602 12.281 16.7169C12.1385 16.574 11.9645 16.4664 11.773 16.4029L10.782 16.0799C10.5516 16.0026 10.3516 15.8541 10.211 15.6559C10.0737 15.4636 10.0002 15.2331 10.001 14.9969C10.0013 14.7591 10.0757 14.5274 10.214 14.3339C10.3512 14.1394 10.5466 13.9934 10.772 13.9169L11.778 13.5909C11.965 13.5245 12.1343 13.4162 12.273 13.2742C12.4117 13.1322 12.516 12.9604 12.578 12.7719L12.902 11.7799C12.9782 11.5557 13.1222 11.3606 13.3141 11.2218C13.5059 11.0829 13.7362 11.0071 13.973 11.0048C14.2099 11.0025 14.4416 11.0738 14.6361 11.2089C14.8306 11.344 14.9784 11.5362 15.059 11.7589L15.388 12.7729C15.4524 12.963 15.5599 13.1356 15.7022 13.2771C15.8445 13.4187 16.0176 13.5254 16.208 13.5889L17.2 13.9119C17.4287 13.9834 17.629 14.1251 17.7727 14.3169C17.9163 14.5086 17.9959 14.7408 18.0002 14.9803C18.0045 15.2199 17.9333 15.4547 17.7967 15.6516C17.6601 15.8484 17.4649 15.9972 17.239 16.0769L16.225 16.4059C16.0349 16.4707 15.8622 16.5781 15.72 16.7199C15.5777 16.8627 15.4705 17.0366 15.407 17.2279L15.085 18.2169C15.0075 18.4472 14.8586 18.6469 14.66 18.7869C14.468 18.9249 14.2375 18.9991 14.001 18.9989C13.7607 18.9989 13.5265 18.9229 13.332 18.7819ZM12.3014 14.999C12.6943 15.1386 13.051 15.3646 13.3452 15.6602C13.6394 15.956 13.8635 16.314 14.001 16.7079C14.1399 16.3158 14.3646 15.9597 14.6587 15.6656C14.9528 15.3715 15.3089 15.1468 15.701 15.0079C15.3026 14.8685 14.9406 14.6412 14.642 14.3429C14.3469 14.049 14.1217 13.6926 13.983 13.2999C13.8449 13.6898 13.6223 14.0444 13.3312 14.3383C13.0407 14.6316 12.689 14.8572 12.3014 14.999Z" fill="white"/>
</svg>
